# xmcd CD database file
#
# Track frame offsets:
#	150
#	16332
#	36682
#	51627
#	63920
#	78045
#	94947
#	111942
#	132315
#	144112
#	167615
#	176267
#	188837
#
# Disc length: 2702 seconds
#
# Revision: 0
# Processed by: cddbd v1.5.1PL0 Copyright (c) Steve Scherf et al.
# Submitted via: CDex 1.51
#
DISCID=ac0a8c0d
DTITLE=Ray Charles - Genius and Soul =Jazz
DYEAR=1900
DGENRE=Jazz
TTITLE0=From The Heart
TTITLE1=I've Got News For You
TTITLE2=Moanin
TTITLE3=Let's Go
TTITLE4=One Mint Julep
TTITLE5=I'm Gonna Move To The Outskirts of Town
TTITLE6=Stompin Room Only
TTITLE7=Mr C
TTITLE8=Strike Up The Band
TTITLE9=Birth Of The Blues
TTITLE10=Alabamy Bound
TTITLE11=Basin street Blues
TTITLE12=New York's My Home
EXTD=
EXTT0=
EXTT1=
EXTT2=
EXTT3=
EXTT4=
EXTT5=
EXTT6=
EXTT7=
EXTT8=
EXTT9=
EXTT10=
EXTT11=
EXTT12=
PLAYORDER=
